<svg width="186" height="60" viewBox="0 0 186 60" fill="none" xmlns="http://www.w3.org/2000/svg">
<path d="M42.9272 48.546C42.9135 54.1781 38.2448 58.9714 32.9405 58.9999C31.5888 59.0073 30.4452 58.4046 29.3748 57.6165C25.1931 54.5375 24.8218 54.5293 20.6529 57.6191C19.1492 58.7332 17.5599 59.1746 15.6799 58.8577C10.9492 58.0608 7.18914 53.7644 7.10178 48.8941C7.06967 47.1062 7.68365 45.5511 8.85682 44.2166C9.82745 43.1119 10.9436 42.1668 12.0988 41.2793C14.0641 39.7697 15.6521 37.9324 17.002 35.8571C17.994 34.3319 18.9403 32.7686 20.2568 31.4883C23.0664 28.7562 26.9583 28.7553 29.7666 31.487C30.7372 32.4304 31.5387 33.5143 32.2302 34.6692C34.0268 37.6663 36.3465 40.1505 39.0991 42.2709C40.8631 43.6296 42.4354 45.2025 42.8091 47.5891C42.8708 47.9815 42.9067 48.3769 42.9273 48.546L42.9272 48.546Z" fill="url(#paint0_linear_122_14)"/>
<path d="M0.000109547 29.5385C0.0300807 27.6231 0.371318 26.0095 1.28372 24.5605C3.16766 21.5678 6.55388 21.0042 9.29188 23.2144C12.6071 25.8906 13.6843 31.3658 11.6334 35.1143C9.76582 38.5289 5.94709 39.1722 3.10201 36.5403C1.0096 34.6049 0.137448 32.1243 0 29.5382L0.000109547 29.5385Z" fill="url(#paint1_linear_122_14)"/>
<path d="M11.5512 16.6341C11.5764 15.268 12.0196 13.4017 13.1623 11.7533C15.7967 7.95458 20.3878 8.09209 22.6831 12.1322C24.716 15.7124 24.621 19.365 22.3346 22.8138C20.1249 26.1459 16.1144 26.2864 13.5553 23.2235C12.3123 21.7368 11.5536 19.4768 11.5511 16.6341L11.5512 16.6341Z" fill="url(#paint2_linear_122_14)"/>
<path d="M38.4905 17.4888C38.3882 19.7089 37.7643 21.9204 36.0419 23.6858C33.77 26.0147 30.5774 25.9779 28.321 23.6225C25.1321 20.2938 25.1997 13.9601 28.4593 10.7103C30.9135 8.26254 34.3019 8.47974 36.4687 11.2124C37.8804 12.992 38.452 15.0501 38.4905 17.4892L38.4905 17.4888Z" fill="url(#paint3_linear_122_14)"/>
<path d="M49.9875 28.8471C49.8505 32.0536 48.7318 34.8017 46.1616 36.7942C42.6113 39.5477 38.2163 37.9293 37.2577 33.5093C36.4789 29.9195 37.5377 26.8024 40.0185 24.2385C41.6905 22.5113 43.7755 21.5609 46.2131 22.4466C48.7444 23.3666 49.6473 25.5199 49.9817 28.0141C50.019 28.2877 49.9877 28.5699 49.9877 28.8469L49.9875 28.8471Z" fill="url(#paint4_linear_122_14)"/>
<path d="M89.05 50.4C89.0167 50.6 88.8167 50.65 88.45 50.55C88.1167 50.4833 87.8167 50.25 87.55 49.85C87.2833 49.2167 87.15 48.6333 87.15 48.1C87.15 47.5667 87.1667 46.7667 87.2 45.7C87.4 44.5333 87.6667 43.0167 88 41.15C88.3667 39.25 88.7833 37.1333 89.25 34.8C89.75 32.4333 90.2833 29.9667 90.85 27.4C91.25 26.0667 91.5667 24.85 91.8 23.75C92.0667 22.6167 92.2667 21.7 92.4 21C92.5333 20.3 92.6 19.95 92.6 19.95C92.6 19.85 92.5 19.9 92.3 20.1C92.1333 20.2667 91.9667 20.4667 91.8 20.7C91.6333 20.9333 91.5667 21.1167 91.6 21.25C91.6 21.25 91.4833 21.4167 91.25 21.75C91.0167 22.0833 90.7167 22.5333 90.35 23.1C90.0167 23.4333 89.6167 24.1 89.15 25.1C88.6833 26.1 88.1667 27.0333 87.6 27.9C87.0667 28.9 86.5 29.9833 85.9 31.15C85.3 32.2833 84.7667 33.2333 84.3 34C84 34.4333 83.7 34.9333 83.4 35.5C83.1 36.0667 82.9167 36.4333 82.85 36.6C82.7167 36.9667 82.4833 37.4167 82.15 37.95C81.8167 38.45 81.45 38.95 81.05 39.45C80.85 39.75 80.65 40.0667 80.45 40.4C80.25 40.7 80.0833 40.9667 79.95 41.2C79.85 41.4 79.8 41.5 79.8 41.5C79.8 41.6 79.6333 41.9 79.3 42.4C79 42.9 78.6167 43.45 78.15 44.05C77.7167 44.65 77.3 45.1667 76.9 45.6C75.7333 46.8333 74.8 47.5667 74.1 47.8C73.4 48 72.6167 47.7 71.75 46.9C71.3167 46.3667 71 45.7667 70.8 45.1C70.6 44.4 70.5167 43.55 70.55 42.55C70.5833 41.5167 70.7 40.2333 70.9 38.7C71.1333 37.5333 71.35 36.3667 71.55 35.2C71.75 34 71.9333 32.8833 72.1 31.85C72.3 30.7833 72.4667 29.8833 72.6 29.15C72.7667 28.4167 72.9 27.9333 73 27.7C73.0667 27.0333 73.05 26.6667 72.95 26.6C72.85 26.5333 72.65 26.7333 72.35 27.2C72.2167 27.4333 71.8667 28.0167 71.3 28.95C70.7333 29.85 70.0667 30.9667 69.3 32.3C68.5667 33.6333 67.8333 35.0833 67.1 36.65C65.7333 39.1833 64.6 41.2833 63.7 42.95C62.8333 44.5833 62.1333 45.8833 61.6 46.85C61.1 47.8167 60.7333 48.5333 60.5 49C60.2667 49.4667 60.1 49.7833 60 49.95C59.9 50.1167 59.8167 50.2333 59.75 50.3C59.45 50.3 59.1333 50.1667 58.8 49.9C58.5 49.6667 58.1833 49.3833 57.85 49.05C57.75 48.8167 57.7 48.5833 57.7 48.35C57.7333 48.1167 57.85 47.7833 58.05 47.35C58.25 46.8833 58.55 46.1833 58.95 45.25C59.3833 44.3833 59.7833 43.6333 60.15 43C60.5167 42.3333 60.8 41.9333 61 41.8C61.1667 41.5333 61.3167 41.2667 61.45 41C61.5833 40.7333 61.6667 40.4167 61.7 40.05C61.8667 39.85 62.1167 39.45 62.45 38.85C62.8167 38.2167 63.1833 37.5333 63.55 36.8C63.8167 36.3667 64.15 35.8 64.55 35.1C64.9833 34.4 65.4333 33.6333 65.9 32.8C66.3667 31.9333 66.7833 31.1167 67.15 30.35C68.6833 27.7167 69.9833 25.5 71.05 23.7C72.1167 21.8667 72.9167 20.7 73.45 20.2C73.6167 20.0333 73.7833 19.8 73.95 19.5C74.15 19.2 74.25 18.9333 74.25 18.7C74.25 18 74.3833 17.3667 74.65 16.8C74.95 16.2 75.25 15.9333 75.55 16C75.8833 16 76.1833 16.0333 76.45 16.1C76.7167 16.1667 77 16.3833 77.3 16.75C77.5667 17.15 77.8 17.55 78 17.95C78.2 18.35 78.1833 19.15 77.95 20.35C77.95 20.8167 77.9 21.35 77.8 21.95C77.7 22.5167 77.6 23.05 77.5 23.55C77.4333 24.0167 77.3833 24.3833 77.35 24.65C76.9167 25.95 76.5167 27.4167 76.15 29.05C75.7833 30.65 75.45 32.2833 75.15 33.95C74.85 35.5833 74.6 37.1167 74.4 38.55C74.2 39.95 74.0667 41.1167 74 42.05C73.9667 42.95 74 43.4667 74.1 43.6C74.3333 43.7333 74.5333 43.75 74.7 43.65C74.8667 43.55 75.15 43.1167 75.55 42.35C75.7833 41.95 76.1 41.4667 76.5 40.9C76.9333 40.3 77.35 39.75 77.75 39.25C78.0167 38.7833 78.4333 38.0833 79 37.15C79.5667 36.2167 80.2833 35.0167 81.15 33.55C82.05 32.0833 83.1167 30.3 84.35 28.2C85.6167 26.0667 87.05 23.6 88.65 20.8C89.4167 19.6333 90.1333 18.5 90.8 17.4C91.5 16.2667 92.0667 15.5333 92.5 15.2C92.9667 14.7667 93.45 14.6667 93.95 14.9C94.45 15.1 94.8833 15.5333 95.25 16.2C95.65 16.8667 95.8667 17.7 95.9 18.7C95.9333 19.1667 95.8667 19.9167 95.7 20.95C95.5667 21.9833 95.35 23.1667 95.05 24.5C94.75 25.8 94.3667 27.15 93.9 28.55C93.8 29.1167 93.6333 29.8333 93.4 30.7C93.2 31.5333 92.9667 32.4 92.7 33.3C92.4333 34.2 92.1667 35.05 91.9 35.85C91.7333 36.95 91.5333 38.0333 91.3 39.1C91.1 40.1667 91.0333 40.8833 91.1 41.25C90.8 41.7833 90.6 42.55 90.5 43.55C90.4 44.55 90.35 45.5833 90.35 46.65C90.2167 47.95 90.1167 48.8667 90.05 49.4C89.9833 49.9333 89.8667 50.1833 89.7 50.15C89.2667 50.0167 89.05 50.1 89.05 50.4ZM95.448 57.95C94.648 58.1833 93.7647 58.2167 92.798 58.05C91.8647 57.9167 91.048 57.6333 90.348 57.2C89.6147 56.7667 89.198 56.2833 89.098 55.75C89.0647 55.55 89.1314 55.3333 89.298 55.1C89.4314 54.8667 89.6147 54.7 89.848 54.6C90.048 54.5333 90.2314 54.6 90.398 54.8C90.6647 54.9667 91.148 55.1667 91.848 55.4C92.548 55.6667 93.3314 55.7167 94.198 55.55C94.9647 55.3833 95.7147 54.9333 96.448 54.2C97.2147 53.4667 97.8314 52.7833 98.298 52.15C98.5647 51.75 99.0147 51.0333 99.648 50C100.281 48.9667 100.931 47.8333 101.598 46.6C102.298 45.3333 102.881 44.1667 103.348 43.1C103.448 42.8333 103.565 42.5167 103.698 42.15C103.831 41.7833 103.998 41.4833 104.198 41.25C104.398 40.85 104.565 40.4833 104.698 40.15C104.865 39.7833 104.965 39.5333 104.998 39.4C105.031 39.2333 105.181 38.9 105.448 38.4C105.715 37.9 105.965 37.4 106.198 36.9C106.365 36.4 106.615 35.6667 106.948 34.7C107.281 33.7333 107.615 32.95 107.948 32.35C108.348 31.5833 108.665 30.9667 108.898 30.5C109.165 30 109.448 29.7 109.748 29.6C110.048 29.3667 110.248 29.25 110.348 29.25C110.481 29.25 110.731 29.35 111.098 29.55C111.498 29.95 111.748 30.35 111.848 30.75C111.948 31.1167 111.898 31.5833 111.698 32.15C111.531 32.6833 111.198 33.4167 110.698 34.35C110.431 35.15 110.131 35.8833 109.798 36.55C109.498 37.1833 109.265 37.6 109.098 37.8C108.931 38.2 108.731 38.65 108.498 39.15C108.298 39.6167 108.115 40.05 107.948 40.45C107.348 41.7833 106.831 42.8667 106.398 43.7C105.965 44.5333 105.581 45.3 105.248 46C104.915 46.7 104.565 47.5167 104.198 48.45C103.431 49.6833 102.681 50.85 101.948 51.95C101.248 53.0833 100.498 54.1333 99.698 55.1C99.3647 55.4 98.948 55.75 98.448 56.15C97.948 56.55 97.4314 56.9167 96.898 57.25C96.398 57.5833 95.9147 57.8167 95.448 57.95ZM102.198 45.95C101.698 45.8833 101.198 45.5833 100.698 45.05C100.231 44.5167 99.8647 43.95 99.598 43.35C99.3314 42.75 99.2314 42.3167 99.298 42.05C99.298 41.8833 99.298 41.75 99.298 41.65C99.298 41.55 99.298 41.5 99.298 41.5C99.098 41.5 98.9147 41.25 98.748 40.75C98.6147 40.25 98.5147 39.6 98.448 38.8C98.3814 38 98.3314 37.15 98.298 36.25C98.298 35.35 98.3314 34.5 98.398 33.7C98.5314 33.1333 98.598 32.5167 98.598 31.85C98.598 31.15 98.6147 30.6 98.648 30.2C98.6147 29.6667 98.6647 29.3167 98.798 29.15C98.9314 28.95 99.0647 28.8 99.198 28.7C100.131 28.3 100.748 28.55 101.048 29.45C101.381 30.3167 101.465 31.95 101.298 34.35C101.231 35.6833 101.231 37.0167 101.298 38.35C101.365 39.6833 101.548 40.85 101.848 41.85C102.181 42.85 102.631 43.5333 103.198 43.9C103.431 44.0333 103.548 44.2167 103.548 44.45C103.548 44.6833 103.481 44.9333 103.348 45.2C103.215 45.4333 103.031 45.6333 102.798 45.8C102.598 45.9333 102.398 45.9833 102.198 45.95ZM128.148 49.25C127.982 49.25 127.782 49.1667 127.548 49C127.315 48.8667 127.098 48.6833 126.898 48.45C126.732 48.2167 126.648 47.9667 126.648 47.7C126.648 47.7 126.632 47.6 126.598 47.4C126.598 47.1667 126.532 46.9333 126.398 46.7C126.398 46.4333 126.398 46.1333 126.398 45.8C126.432 45.4333 126.515 45.0667 126.648 44.7C126.648 44.3333 126.698 43.9333 126.798 43.5C126.898 43.0333 127.015 42.6833 127.148 42.45C127.148 42.0833 127.232 41.6167 127.398 41.05C127.598 40.45 127.765 39.9 127.898 39.4C128.265 38.3 128.532 37.5 128.698 37C128.898 36.5 129.032 36.1333 129.098 35.9C129.165 35.6333 129.198 35.3667 129.198 35.1C129.298 34.8333 129.448 34.35 129.648 33.65C129.848 32.95 130.048 32.2333 130.248 31.5C130.482 30.7333 130.632 30.1833 130.698 29.85C130.832 29.7167 130.898 29.6 130.898 29.5C130.932 29.3667 130.948 29.2333 130.948 29.1C130.948 29.1 131.065 28.7167 131.298 27.95C131.532 27.1833 131.832 26.3 132.198 25.3C132.798 23.5333 133.198 22.25 133.398 21.45C133.632 20.65 133.732 20.0833 133.698 19.75C133.698 19.4167 133.615 19.0833 133.448 18.75C133.215 18.3167 133.215 17.9833 133.448 17.75C133.582 17.6167 133.698 17.4667 133.798 17.3C133.898 17.1 133.948 17 133.948 17C133.948 16.9333 134.165 16.8167 134.598 16.65C135.032 16.4833 135.565 16.3 136.198 16.1C136.832 15.8667 137.465 15.65 138.098 15.45C138.765 15.25 139.315 15.0833 139.748 14.95C139.848 14.95 139.998 14.95 140.198 14.95C140.432 14.95 140.682 14.95 140.948 14.95C141.248 14.95 141.532 14.95 141.798 14.95C142.665 15.0833 143.548 15.3333 144.448 15.7C145.382 16.0667 146.165 16.5833 146.798 17.25C147.198 17.6167 147.548 18.05 147.848 18.55C148.182 19.05 148.598 19.8667 149.098 21C149.098 21.1333 149.132 21.4167 149.198 21.85C149.298 22.25 149.348 22.65 149.348 23.05C149.348 24.05 149.098 25.1 148.598 26.2C148.098 27.3 147.382 28.4167 146.448 29.55C145.515 30.65 144.382 31.75 143.048 32.85C141.648 33.9833 140.198 34.75 138.698 35.15C137.198 35.55 135.865 35.6333 134.698 35.4C134.465 35.3 134.248 35.1 134.048 34.8C133.882 34.5 133.765 34.2 133.698 33.9C133.632 33.6 133.648 33.4 133.748 33.3C134.015 33.2333 134.415 33.2167 134.948 33.25C135.482 33.25 136.332 33.0333 137.498 32.6C137.865 32.4667 138.248 32.3167 138.648 32.15C139.048 31.95 139.365 31.7833 139.598 31.65C140.265 31.2167 141.032 30.6333 141.898 29.9C142.765 29.1667 143.565 28.2167 144.298 27.05C144.598 26.5833 144.898 26.0333 145.198 25.4C145.498 24.7333 145.748 24.0667 145.948 23.4C146.182 22.7333 146.298 22.1833 146.298 21.75C146.565 20.8833 146.398 20.1667 145.798 19.6C145.232 19 144.315 18.6333 143.048 18.5C142.648 18.4 142.032 18.4333 141.198 18.6C140.365 18.7333 139.565 18.9167 138.798 19.15C138.032 19.3833 137.515 19.5833 137.248 19.75C137.115 19.75 137.032 19.85 136.998 20.05C136.965 20.25 136.882 20.4833 136.748 20.75C136.748 20.9833 136.648 21.4833 136.448 22.25C136.248 22.9833 136.015 23.6667 135.748 24.3C135.515 25.0333 135.232 25.85 134.898 26.75C134.565 27.6167 134.332 28.3 134.198 28.8C134.065 29.3333 133.898 29.85 133.698 30.35C133.532 30.85 133.448 31.1 133.448 31.1C133.448 31.2333 133.348 31.5167 133.148 31.95C132.982 32.3833 132.832 32.85 132.698 33.35C132.565 33.9833 132.382 34.7 132.148 35.5C131.948 36.3 131.715 37.0167 131.448 37.65C131.082 38.8833 130.765 40.1167 130.498 41.35C130.232 42.55 130.215 43.3333 130.448 43.7C130.815 43.7 130.948 44 130.848 44.6C130.748 45.1667 130.448 45.95 129.948 46.95C129.615 47.7833 129.365 48.35 129.198 48.65C129.032 48.9833 128.882 49.1667 128.748 49.2C128.615 49.2333 128.415 49.25 128.148 49.25ZM157.056 46.25C156.356 46.85 155.539 47.2 154.606 47.3C153.706 47.4 152.823 47.2667 151.956 46.9C151.089 46.5 150.373 45.9 149.806 45.1C149.239 44.3667 148.873 43.5333 148.706 42.6C148.539 41.6333 148.523 40.3833 148.656 38.85C148.756 37.55 149.173 36.25 149.906 34.95C150.639 33.6167 151.523 32.4333 152.556 31.4C153.623 30.3667 154.673 29.65 155.706 29.25C156.206 28.9167 156.623 28.7667 156.956 28.8C157.323 28.8 157.873 28.8333 158.606 28.9C159.373 29 159.939 29.15 160.306 29.35C160.706 29.55 161.023 29.8167 161.256 30.15C161.756 30.65 162.089 31.15 162.256 31.65C162.423 32.1167 162.506 32.5833 162.506 33.05C162.373 33.7833 161.873 34.6833 161.006 35.75C160.173 36.7833 159.073 37.6333 157.706 38.3C156.973 38.5333 156.173 38.6333 155.306 38.6C154.439 38.5667 153.723 38.35 153.156 37.95C152.523 37.6833 152.106 37.7333 151.906 38.1C151.706 38.4333 151.523 39.2667 151.356 40.6C151.223 41.8667 151.323 42.8 151.656 43.4C151.989 43.9667 152.439 44.3 153.006 44.4C153.673 44.5333 154.189 44.6333 154.556 44.7C154.956 44.7333 155.439 44.5833 156.006 44.25C156.539 43.9167 156.873 43.7333 157.006 43.7C157.139 43.6333 157.239 43.5667 157.306 43.5C157.406 43.4 157.623 43.1833 157.956 42.85C158.189 42.6167 158.373 42.45 158.506 42.35C158.639 42.2167 158.789 42.15 158.956 42.15C159.123 42.15 159.273 42.2333 159.406 42.4C159.539 42.5333 159.673 42.6333 159.806 42.7C160.139 42.7 160.206 42.9 160.006 43.3C159.839 43.7 159.489 44.1833 158.956 44.75C158.423 45.2833 157.789 45.7833 157.056 46.25ZM157.006 35.65C157.373 35.4833 157.756 35.25 158.156 34.95C158.556 34.6167 158.889 34.2667 159.156 33.9C159.456 33.5 159.606 33.1667 159.606 32.9C159.606 32.4333 159.389 32.05 158.956 31.75C158.523 31.4167 157.873 31.3667 157.006 31.6C156.639 31.7 156.223 31.95 155.756 32.35C155.289 32.7167 154.839 33.1333 154.406 33.6C154.006 34.0667 153.673 34.4833 153.406 34.85C153.173 35.2167 153.089 35.4333 153.156 35.5C153.256 35.6667 153.539 35.8 154.006 35.9C154.473 35.9667 154.989 35.9833 155.556 35.95C156.156 35.9167 156.639 35.8167 157.006 35.65ZM170.766 47.9C170.299 47.7667 169.916 47.6167 169.616 47.45C169.316 47.25 168.916 46.9333 168.416 46.5C168.016 45.9667 167.699 45.4667 167.466 45C167.266 44.5333 167.132 44 167.066 43.4C166.999 42.7667 166.966 41.9667 166.966 41C166.966 40.6 167.032 40 167.166 39.2C167.332 38.4 167.516 37.5667 167.716 36.7C167.949 35.8 168.149 35 168.316 34.3C168.516 33.6 168.632 33.15 168.666 32.95C168.766 32.5167 168.599 32.2667 168.166 32.2C167.732 32.1333 167.249 32.1167 166.716 32.15C166.216 32.15 165.882 32.1 165.716 32C165.582 31.9667 165.516 31.9167 165.516 31.85C165.516 31.75 165.516 31.7 165.516 31.7C165.516 31.5667 165.499 31.4833 165.466 31.45C165.466 31.3833 165.416 31.2667 165.316 31.1C165.249 30.9667 165.282 30.7833 165.416 30.55C165.582 30.2833 165.849 30.1167 166.216 30.05C166.516 29.9833 166.916 29.9333 167.416 29.9C167.949 29.8333 168.482 29.7167 169.016 29.55C169.549 29.35 169.982 29.05 170.316 28.65C170.616 27.9167 170.966 27.1 171.366 26.2C171.766 25.3 172.149 24.5 172.516 23.8C172.916 23.0667 173.182 22.6167 173.316 22.45C173.882 22.15 174.299 22.0333 174.566 22.1C174.832 22.1333 175.132 22.4167 175.466 22.95C175.632 23.1833 175.749 23.3667 175.816 23.5C175.916 23.6333 175.932 23.8333 175.866 24.1C175.799 24.3667 175.616 24.7833 175.316 25.35C175.049 25.9167 174.632 26.7333 174.066 27.8C173.899 28.1333 173.749 28.4333 173.616 28.7C173.482 28.9333 173.416 29.05 173.416 29.05C173.549 29.0833 173.749 29.1 174.016 29.1C174.282 29.1 174.616 29.0833 175.016 29.05C175.382 28.9833 175.849 28.9333 176.416 28.9C176.982 28.8333 177.432 28.8333 177.766 28.9C178.532 28.9 179.099 29.05 179.466 29.35C179.832 29.6167 180.032 30.0833 180.066 30.75C180.132 31.1167 180.049 31.3333 179.816 31.4C179.616 31.4667 179.066 31.5 178.166 31.5C177.866 31.5 177.399 31.5167 176.766 31.55C176.132 31.5833 175.466 31.6167 174.766 31.65C174.099 31.6833 173.516 31.7333 173.016 31.8C172.549 31.8333 172.316 31.8833 172.316 31.95C172.216 32.0167 172.049 32.3333 171.816 32.9C171.616 33.4667 171.399 34.1167 171.166 34.85C170.966 35.55 170.782 36.1833 170.616 36.75C170.382 37.8833 170.199 39.0167 170.066 40.15C169.966 41.2833 169.949 42.2667 170.016 43.1C170.082 43.9333 170.266 44.5167 170.566 44.85C170.866 45.15 171.449 45.2167 172.316 45.05C173.182 44.85 173.882 44.5333 174.416 44.1C175.016 43.6 175.499 43.35 175.866 43.35C176.266 43.35 176.482 43.5333 176.516 43.9C176.582 44.2333 176.399 44.7167 175.966 45.35C175.566 45.95 175.066 46.4833 174.466 46.95C173.866 47.3833 173.232 47.7 172.566 47.9C171.932 48.0667 171.332 48.0667 170.766 47.9Z" fill="url(#paint5_linear_122_14)"/>
<defs>
<linearGradient id="paint0_linear_122_14" x1="25.0139" y1="29.4387" x2="25.0139" y2="59" gradientUnits="userSpaceOnUse">
<stop stop-color="#FF655B" stop-opacity="0.36"/>
<stop offset="1" stop-color="#FD3A73"/>
</linearGradient>
<linearGradient id="paint1_linear_122_14" x1="6.33783" y1="21.8709" x2="6.33783" y2="38.1608" gradientUnits="userSpaceOnUse">
<stop stop-color="#FF655B" stop-opacity="0.36"/>
<stop offset="1" stop-color="#FD3A73"/>
</linearGradient>
<linearGradient id="paint2_linear_122_14" x1="17.842" y1="9" x2="17.842" y2="25.4212" gradientUnits="userSpaceOnUse">
<stop stop-color="#FF655B" stop-opacity="0.36"/>
<stop offset="1" stop-color="#FD3A73"/>
</linearGradient>
<linearGradient id="paint3_linear_122_14" x1="32.2309" y1="9.00934" x2="32.2309" y2="25.411" gradientUnits="userSpaceOnUse">
<stop stop-color="#FF655B" stop-opacity="0.36"/>
<stop offset="1" stop-color="#FD3A73"/>
</linearGradient>
<linearGradient id="paint4_linear_122_14" x1="43.503" y1="22.1095" x2="43.503" y2="38.1486" gradientUnits="userSpaceOnUse">
<stop stop-color="#FF655B" stop-opacity="0.36"/>
<stop offset="1" stop-color="#FD3A73"/>
</linearGradient>
<linearGradient id="paint5_linear_122_14" x1="121" y1="0" x2="121" y2="60" gradientUnits="userSpaceOnUse">
<stop stop-color="#FF655B" stop-opacity="0.36"/>
<stop offset="1" stop-color="#FD3A73"/>
</linearGradient>
</defs>
</svg>
