<svg width="50" height="50" viewBox="0 0 50 50" fill="none" xmlns="http://www.w3.org/2000/svg">
<path d="M42.9272 39.546C42.9135 45.1781 38.2448 49.9714 32.9405 49.9999C31.5888 50.0073 30.4452 49.4046 29.3748 48.6165C25.1931 45.5375 24.8218 45.5293 20.6529 48.6191C19.1492 49.7332 17.5599 50.1746 15.6799 49.8577C10.9492 49.0608 7.18914 44.7644 7.10178 39.8941C7.06967 38.1062 7.68365 36.5511 8.85682 35.2166C9.82745 34.1119 10.9436 33.1668 12.0988 32.2793C14.0641 30.7697 15.6521 28.9324 17.002 26.8571C17.994 25.3319 18.9403 23.7686 20.2568 22.4883C23.0664 19.7562 26.9583 19.7553 29.7666 22.487C30.7372 23.4304 31.5387 24.5143 32.2302 25.6692C34.0268 28.6663 36.3465 31.1505 39.0991 33.2709C40.8631 34.6296 42.4354 36.2025 42.8091 38.5891C42.8708 38.9815 42.9067 39.3769 42.9273 39.546L42.9272 39.546Z" fill="url(#paint0_linear_122_14)"/>
<path d="M0.000109547 20.5385C0.0300807 18.6231 0.371318 17.0095 1.28372 15.5605C3.16766 12.5678 6.55388 12.0042 9.29188 14.2144C12.6071 16.8906 13.6843 22.3658 11.6334 26.1143C9.76582 29.5289 5.94709 30.1722 3.10201 27.5403C1.0096 25.6049 0.137448 23.1243 0 20.5382L0.000109547 20.5385Z" fill="url(#paint1_linear_122_14)"/>
<path d="M11.5512 7.63415C11.5764 6.26802 12.0196 4.40167 13.1623 2.7533C15.7967 -1.04542 20.3878 -0.907912 22.6831 3.13222C24.716 6.71242 24.621 10.365 22.3346 13.8138C20.1249 17.1459 16.1144 17.2864 13.5553 14.2235C12.3123 12.7368 11.5536 10.4768 11.5511 7.63409L11.5512 7.63415Z" fill="url(#paint2_linear_122_14)"/>
<path d="M38.4905 8.48875C38.3882 10.7089 37.7643 12.9204 36.0419 14.6858C33.77 17.0147 30.5774 16.9779 28.321 14.6225C25.1321 11.2938 25.1997 4.96013 28.4593 1.71034C30.9135 -0.737461 34.3019 -0.520261 36.4687 2.21238C37.8804 3.99204 38.452 6.05006 38.4905 8.4892L38.4905 8.48875Z" fill="url(#paint3_linear_122_14)"/>
<path d="M49.9875 19.8471C49.8505 23.0536 48.7318 25.8017 46.1616 27.7942C42.6113 30.5477 38.2163 28.9293 37.2577 24.5093C36.4789 20.9195 37.5377 17.8024 40.0185 15.2385C41.6905 13.5113 43.7755 12.5609 46.2131 13.4466C48.7444 14.3666 49.6473 16.5199 49.9817 19.0141C50.019 19.2877 49.9877 19.5699 49.9877 19.8469L49.9875 19.8471Z" fill="url(#paint4_linear_122_14)"/>
<defs>
<linearGradient id="paint0_linear_122_14" x1="25.0139" y1="20.4387" x2="25.0139" y2="50" gradientUnits="userSpaceOnUse">
<stop stop-color="#FF655B" stop-opacity="0.36"/>
<stop offset="1" stop-color="#FD3A73"/>
</linearGradient>
<linearGradient id="paint1_linear_122_14" x1="6.33783" y1="12.8709" x2="6.33783" y2="29.1608" gradientUnits="userSpaceOnUse">
<stop stop-color="#FF655B" stop-opacity="0.36"/>
<stop offset="1" stop-color="#FD3A73"/>
</linearGradient>
<linearGradient id="paint2_linear_122_14" x1="17.842" y1="0" x2="17.842" y2="16.4212" gradientUnits="userSpaceOnUse">
<stop stop-color="#FF655B" stop-opacity="0.36"/>
<stop offset="1" stop-color="#FD3A73"/>
</linearGradient>
<linearGradient id="paint3_linear_122_14" x1="32.2309" y1="0.00933838" x2="32.2309" y2="16.411" gradientUnits="userSpaceOnUse">
<stop stop-color="#FF655B" stop-opacity="0.36"/>
<stop offset="1" stop-color="#FD3A73"/>
</linearGradient>
<linearGradient id="paint4_linear_122_14" x1="43.503" y1="13.1095" x2="43.503" y2="29.1486" gradientUnits="userSpaceOnUse">
<stop stop-color="#FF655B" stop-opacity="0.36"/>
<stop offset="1" stop-color="#FD3A73"/>
</linearGradient>
</defs>
</svg>
