<svg width="185" height="60" viewBox="0 0 185 60" fill="none" xmlns="http://www.w3.org/2000/svg">
<path d="M42.9272 48.546C42.9135 54.1781 38.2448 58.9714 32.9405 58.9999C31.5888 59.0073 30.4452 58.4046 29.3748 57.6165C25.1931 54.5375 24.8218 54.5293 20.6529 57.6191C19.1492 58.7332 17.5599 59.1746 15.6799 58.8577C10.9492 58.0608 7.18914 53.7644 7.10178 48.8941C7.06967 47.1062 7.68365 45.5511 8.85682 44.2166C9.82745 43.1119 10.9436 42.1668 12.0988 41.2793C14.0641 39.7697 15.6521 37.9324 17.002 35.8571C17.994 34.3319 18.9403 32.7686 20.2568 31.4883C23.0664 28.7562 26.9583 28.7553 29.7666 31.487C30.7372 32.4304 31.5387 33.5143 32.2302 34.6692C34.0268 37.6663 36.3465 40.1505 39.0991 42.2709C40.8631 43.6296 42.4354 45.2025 42.8091 47.5891C42.8708 47.9815 42.9067 48.3769 42.9273 48.546L42.9272 48.546Z" fill="url(#paint0_linear_122_14)"/>
<path d="M0.000109547 29.5385C0.0300807 27.6231 0.371318 26.0095 1.28372 24.5605C3.16766 21.5678 6.55388 21.0042 9.29188 23.2144C12.6071 25.8906 13.6843 31.3658 11.6334 35.1143C9.76582 38.5289 5.94709 39.1722 3.10201 36.5403C1.0096 34.6049 0.137448 32.1243 0 29.5382L0.000109547 29.5385Z" fill="url(#paint1_linear_122_14)"/>
<path d="M11.5512 16.6341C11.5764 15.268 12.0196 13.4017 13.1623 11.7533C15.7967 7.95458 20.3878 8.09209 22.6831 12.1322C24.716 15.7124 24.621 19.365 22.3346 22.8138C20.1249 26.1459 16.1144 26.2864 13.5553 23.2235C12.3123 21.7368 11.5536 19.4768 11.5511 16.6341L11.5512 16.6341Z" fill="url(#paint2_linear_122_14)"/>
<path d="M38.4905 17.4888C38.3882 19.7089 37.7643 21.9204 36.0419 23.6858C33.77 26.0147 30.5774 25.9779 28.321 23.6225C25.1321 20.2938 25.1997 13.9601 28.4593 10.7103C30.9135 8.26254 34.3019 8.47974 36.4687 11.2124C37.8804 12.992 38.452 15.0501 38.4905 17.4892L38.4905 17.4888Z" fill="url(#paint3_linear_122_14)"/>
<path d="M49.9875 28.8471C49.8505 32.0536 48.7318 34.8017 46.1616 36.7942C42.6113 39.5477 38.2163 37.9293 37.2577 33.5093C36.4789 29.9195 37.5377 26.8024 40.0185 24.2385C41.6905 22.5113 43.7755 21.5609 46.2131 22.4466C48.7444 23.3666 49.6473 25.5199 49.9817 28.0141C50.019 28.2877 49.9877 28.5699 49.9877 28.8469L49.9875 28.8471Z" fill="url(#paint4_linear_122_14)"/>
<path d="M88.75 50.4C88.6167 50.5333 88.3 50.5667 87.8 50.5C87.3 50.4667 86.9 50.2333 86.6 49.8C86.3667 49.3333 86.2333 48.8 86.2 48.2C86.1667 47.6 86.1667 46.7667 86.2 45.7C86.4 44.5333 86.7333 43 87.2 41.1C87.6667 39.2 88.1833 37.0833 88.75 34.75C89.35 32.3833 89.95 29.9667 90.55 27.5C90.85 26.3333 91.0833 25.35 91.25 24.55C91.45 23.75 91.5833 23.15 91.65 22.75C91.75 22.3167 91.8 22.1 91.8 22.1C91.7667 22.1667 91.7167 22.2333 91.65 22.3C91.6167 22.3667 91.5833 22.4333 91.55 22.5C91.5167 22.5667 91.4833 22.6333 91.45 22.7C91.45 22.7 91.3833 22.8167 91.25 23.05C91.15 23.2833 90.9167 23.6833 90.55 24.25C90.2833 24.65 90.0333 25.1167 89.8 25.65C89.5667 26.1833 89.1667 26.8833 88.6 27.75C88.0667 28.75 87.4667 29.9 86.8 31.2C86.1333 32.5 85.5667 33.5333 85.1 34.3C84.8667 34.6667 84.65 34.9833 84.45 35.25C84.2833 35.5167 84.1667 35.7333 84.1 35.9C83.9667 36.2667 83.75 36.7167 83.45 37.25C83.15 37.7833 82.8 38.3 82.4 38.8C82.2 39.1 81.9333 39.45 81.6 39.85C81.3 40.25 81.0333 40.6167 80.8 40.95C80.5667 41.25 80.45 41.4 80.45 41.4C80.3833 41.6 80.1667 41.9167 79.8 42.35C79.4333 42.7833 78.9833 43.2667 78.45 43.8C77.95 44.3 77.4333 44.7667 76.9 45.2C75.7333 46.1333 74.7667 46.7167 74 46.95C73.2667 47.1833 72.4167 46.9 71.45 46.1C71.0167 45.5667 70.6667 45.0333 70.4 44.5C70.1333 43.9333 70 43.1667 70 42.2C70 41.2333 70.1667 39.8833 70.5 38.15C70.7333 37.05 70.9833 35.8833 71.25 34.65C71.55 33.4167 71.85 32.2333 72.15 31.1C72.45 29.9333 72.7167 28.9333 72.95 28.1C73.2167 27.2333 73.4 26.6333 73.5 26.3C73.6 25.4667 73.6167 25.0333 73.55 25C73.4833 24.9333 73.3167 25.1167 73.05 25.55C72.8167 25.9167 72.3833 26.6833 71.75 27.85C71.1167 29.0167 70.4 30.3833 69.6 31.95C68.8333 33.5167 68.0833 35.0833 67.35 36.65C65.9833 39.1833 64.8333 41.3 63.9 43C62.9667 44.7 62.2 46.0667 61.6 47.1C61 48.1 60.5333 48.85 60.2 49.35C59.9 49.8833 59.6667 50.25 59.5 50.45C59.3667 50.6833 59.2667 50.8333 59.2 50.9C58.7 50.8667 58.2667 50.6333 57.9 50.2C57.5333 49.7667 57.2333 49.25 57 48.65C56.9333 48.3167 56.8833 47.9667 56.85 47.6C56.8167 47.2333 56.85 46.8333 56.95 46.4C57.0833 45.9333 57.2833 45.4333 57.55 44.9C57.9833 44.0333 58.4 43.3 58.8 42.7C59.2 42.1 59.45 41.7333 59.55 41.6C59.7167 41.3667 59.85 41.1167 59.95 40.85C60.05 40.5833 60.1167 40.3333 60.15 40.1C60.3167 39.9 60.5667 39.4833 60.9 38.85C61.2667 38.2167 61.6333 37.5333 62 36.8C62.2667 36.3667 62.6333 35.7667 63.1 35C63.5667 34.2 64.0667 33.35 64.6 32.45C65.1333 31.5167 65.6 30.6667 66 29.9C67.4667 27.2667 68.6333 25.1667 69.5 23.6C70.3667 22 70.9833 20.9833 71.35 20.55C71.5833 20.3833 71.7833 20.0667 71.95 19.6C72.15 19.1 72.3167 18.7333 72.45 18.5C72.9167 17.5667 73.3833 16.8 73.85 16.2C74.35 15.5667 74.7833 15.25 75.15 15.25C75.4167 15.25 75.75 15.35 76.15 15.55C76.5833 15.75 77 16.0333 77.4 16.4C77.7667 16.8333 78.1 17.4167 78.4 18.15C78.7333 18.85 78.8 19.7833 78.6 20.95C78.5667 21.4833 78.4833 22.1333 78.35 22.9C78.2167 23.6333 78.0833 24.3667 77.95 25.1C77.8167 25.8333 77.6833 26.45 77.55 26.95C77.2833 28.45 76.9833 29.8833 76.65 31.25C76.35 32.5833 76.0667 33.8167 75.8 34.95C75.5333 36.0833 75.3167 37.0833 75.15 37.95C74.9833 38.7833 74.8667 39.4667 74.8 40C74.7667 40.5333 74.8333 40.8833 75 41.05C75.1 41.0833 75.2333 41.05 75.4 40.95C75.6 40.8167 75.75 40.6833 75.85 40.55C76.05 40.2833 76.2333 40.0167 76.4 39.75C76.5667 39.4833 76.7833 39.15 77.05 38.75C77.5833 38.0167 78.1333 37.2167 78.7 36.35C79.3 35.45 80 34.35 80.8 33.05C81.6333 31.7167 82.6167 30.0833 83.75 28.15C84.8833 26.1833 86.2667 23.75 87.9 20.85C88.6667 19.6833 89.4 18.5167 90.1 17.35C90.8 16.1833 91.4333 15.2833 92 14.65C92.5 14.1167 93.1167 13.9333 93.85 14.1C94.6167 14.2667 95.3167 14.6833 95.95 15.35C96.5833 16.0167 96.9333 16.8333 97 17.8C97.0333 18.2667 96.9333 19.1 96.7 20.3C96.5 21.4667 96.2167 22.7833 95.85 24.25C95.4833 25.7167 95.0667 27.15 94.6 28.55C94.5 29.1167 94.3333 29.8667 94.1 30.8C93.8667 31.7333 93.6167 32.6833 93.35 33.65C93.0833 34.6167 92.8333 35.4833 92.6 36.25C92.3667 37.3833 92.1667 38.2833 92 38.95C91.8667 39.6167 91.8 40.3833 91.8 41.25C91.5 41.7833 91.3 42.55 91.2 43.55C91.1 44.55 91.05 45.5833 91.05 46.65C90.9167 47.95 90.6333 48.8667 90.2 49.4C89.8 49.9333 89.5333 50.1833 89.4 50.15C89.1333 50.05 88.9167 50.1333 88.75 50.4ZM95.2375 58.4C94.0375 58.6333 92.8875 58.6667 91.7875 58.5C90.6875 58.3667 89.7708 58.0833 89.0375 57.65C88.2708 57.2167 87.8042 56.7333 87.6375 56.2C87.4375 55.4333 87.5375 54.8667 87.9375 54.5C88.3375 54.1333 88.8208 53.9167 89.3875 53.85C89.9208 53.7833 90.2708 53.85 90.4375 54.05C90.7042 54.2167 91.1208 54.4667 91.6875 54.8C92.2875 55.1333 93.0208 55.2167 93.8875 55.05C94.6542 54.8833 95.3375 54.5167 95.9375 53.95C96.5375 53.3833 97.0708 52.7833 97.5375 52.15C97.8042 51.75 98.2542 51.0333 98.8875 50C99.5208 48.9667 100.171 47.8333 100.838 46.6C101.538 45.3333 102.121 44.1667 102.588 43.1C102.688 42.8333 102.804 42.5167 102.938 42.15C103.071 41.7833 103.238 41.4833 103.438 41.25C103.638 40.85 103.804 40.4833 103.938 40.15C104.104 39.7833 104.204 39.5333 104.238 39.4C104.271 39.2333 104.421 38.9 104.688 38.4C104.954 37.9 105.204 37.4 105.438 36.9C105.604 36.4 105.854 35.6667 106.188 34.7C106.521 33.7333 106.854 32.95 107.188 32.35C107.588 31.5833 107.904 30.9667 108.138 30.5C108.404 30 108.688 29.7 108.988 29.6C109.288 29.3667 109.571 29.25 109.838 29.25C110.104 29.25 110.421 29.35 110.788 29.55C111.188 29.95 111.504 30.35 111.738 30.75C112.004 31.1167 112.104 31.5833 112.038 32.15C112.004 32.6833 111.738 33.4167 111.238 34.35C110.971 35.15 110.671 35.8833 110.338 36.55C110.038 37.1833 109.804 37.6 109.638 37.8C109.471 38.2 109.271 38.65 109.038 39.15C108.838 39.6167 108.654 40.05 108.488 40.45C107.888 41.7833 107.371 42.8667 106.938 43.7C106.504 44.5333 106.121 45.3 105.788 46C105.454 46.7 105.104 47.5167 104.738 48.45C103.971 49.6833 103.221 50.85 102.488 51.95C101.788 53.0833 101.038 54.1333 100.238 55.1C99.9042 55.4 99.4208 55.7833 98.7875 56.25C98.1875 56.75 97.5542 57.2 96.8875 57.6C96.2542 58.0333 95.7042 58.3 95.2375 58.4ZM101.488 47.1C100.988 47.0333 100.438 46.7 99.8375 46.1C99.2708 45.5 98.7875 44.8667 98.3875 44.2C98.0208 43.5333 97.8708 43.0667 97.9375 42.8C97.9375 42.6333 97.9375 42.5 97.9375 42.4C97.9375 42.3 97.9375 42.25 97.9375 42.25C97.7375 42.25 97.5708 41.9667 97.4375 41.4C97.3375 40.8 97.2542 40.05 97.1875 39.15C97.1542 38.25 97.1375 37.3167 97.1375 36.35C97.1708 35.3833 97.2208 34.5 97.2875 33.7C97.4208 33.1333 97.4875 32.5167 97.4875 31.85C97.4875 31.15 97.5042 30.6 97.5375 30.2C97.5042 29.6667 97.6042 29.2333 97.8375 28.9C98.1042 28.5667 98.3042 28.35 98.4375 28.25C99.6708 27.7167 100.571 28 101.138 29.1C101.704 30.2 101.904 31.95 101.738 34.35C101.671 35.6833 101.638 36.9667 101.638 38.2C101.638 39.4 101.754 40.4333 101.988 41.3C102.221 42.1667 102.621 42.7833 103.188 43.15C103.421 43.2833 103.504 43.5667 103.438 44C103.371 44.4333 103.221 44.9 102.988 45.4C102.754 45.8667 102.488 46.2833 102.188 46.65C101.921 46.9833 101.688 47.1333 101.488 47.1ZM128.138 49.25C127.971 49.25 127.688 49.1667 127.288 49C126.888 48.8667 126.505 48.6833 126.138 48.45C125.805 48.2167 125.638 47.9667 125.638 47.7C125.638 47.7 125.621 47.6 125.588 47.4C125.588 47.1667 125.521 46.9333 125.388 46.7C125.388 46.4333 125.388 46.1333 125.388 45.8C125.421 45.4333 125.505 45.0667 125.638 44.7C125.638 44.3333 125.688 43.9333 125.788 43.5C125.888 43.0333 126.005 42.6833 126.138 42.45C126.138 42.0833 126.221 41.6167 126.388 41.05C126.588 40.45 126.755 39.9 126.888 39.4C127.255 38.3 127.521 37.5 127.688 37C127.888 36.5 128.021 36.1333 128.088 35.9C128.155 35.6333 128.188 35.3667 128.188 35.1C128.288 34.8333 128.438 34.35 128.638 33.65C128.838 32.95 129.038 32.2333 129.238 31.5C129.471 30.7333 129.621 30.1833 129.688 29.85C129.821 29.7167 129.888 29.6 129.888 29.5C129.921 29.3667 129.938 29.2333 129.938 29.1C129.938 29.1 130.055 28.7167 130.288 27.95C130.521 27.1833 130.821 26.3 131.188 25.3C131.788 23.5333 132.188 22.25 132.388 21.45C132.621 20.65 132.721 20.0833 132.688 19.75C132.688 19.4167 132.605 19.0833 132.438 18.75C132.205 18.3167 132.205 17.9833 132.438 17.75C132.571 17.6167 132.688 17.4667 132.788 17.3C132.888 17.1 132.938 17 132.938 17C132.938 16.9333 133.171 16.8 133.638 16.6C134.138 16.3667 134.738 16.1167 135.438 15.85C136.138 15.55 136.838 15.2833 137.538 15.05C138.238 14.7833 138.805 14.5833 139.238 14.45C139.338 14.45 139.571 14.45 139.938 14.45C140.338 14.45 140.755 14.45 141.188 14.45C141.655 14.45 142.021 14.45 142.288 14.45C143.155 14.5833 144.038 14.8333 144.938 15.2C145.871 15.5667 146.655 16.0833 147.288 16.75C147.688 17.1167 148.121 17.6333 148.588 18.3C149.088 18.9667 149.588 19.8667 150.088 21C150.088 21.1333 150.121 21.4167 150.188 21.85C150.288 22.25 150.338 22.65 150.338 23.05C150.338 24.05 150.088 25.1833 149.588 26.45C149.121 27.7167 148.421 29 147.488 30.3C146.555 31.5667 145.421 32.75 144.088 33.85C142.688 34.9833 141.238 35.75 139.738 36.15C138.238 36.55 136.905 36.6333 135.738 36.4C135.071 36.1333 134.621 35.7667 134.388 35.3C134.155 34.8 134.055 34.3333 134.088 33.9C134.121 33.4667 134.188 33.2 134.288 33.1C134.555 33.0333 134.955 33.0167 135.488 33.05C136.021 33.05 136.871 32.8333 138.038 32.4C138.405 32.2667 138.788 32.1167 139.188 31.95C139.588 31.75 139.905 31.5833 140.138 31.45C140.805 31.0167 141.471 30.4667 142.138 29.8C142.838 29.1333 143.555 28.2167 144.288 27.05C144.588 26.5833 144.805 26.0667 144.938 25.5C145.071 24.9333 145.155 24.3667 145.188 23.8C145.255 23.2 145.288 22.6833 145.288 22.25C145.555 21.3833 145.388 20.6667 144.788 20.1C144.221 19.5 143.305 19.1333 142.038 19C141.638 18.9 141.138 18.8833 140.538 18.95C139.971 19.0167 139.438 19.1333 138.938 19.3C138.438 19.4333 138.055 19.5833 137.788 19.75C137.655 19.75 137.571 19.85 137.538 20.05C137.505 20.25 137.421 20.4833 137.288 20.75C137.288 20.9833 137.188 21.4833 136.988 22.25C136.788 22.9833 136.555 23.6667 136.288 24.3C136.055 25.0333 135.771 25.85 135.438 26.75C135.105 27.6167 134.871 28.3 134.738 28.8C134.605 29.3333 134.438 29.85 134.238 30.35C134.071 30.85 133.988 31.1 133.988 31.1C133.988 31.2333 133.888 31.5167 133.688 31.95C133.521 32.3833 133.371 32.85 133.238 33.35C133.105 33.9833 132.921 34.7 132.688 35.5C132.488 36.3 132.255 37.0167 131.988 37.65C131.621 38.8833 131.305 40.1167 131.038 41.35C130.771 42.55 130.755 43.3333 130.988 43.7C131.988 43.7333 132.505 43.95 132.538 44.35C132.605 44.7167 132.088 45.5833 130.988 46.95C130.655 47.7833 130.321 48.35 129.988 48.65C129.655 48.9833 129.321 49.1667 128.988 49.2C128.688 49.2333 128.405 49.25 128.138 49.25ZM157.345 47C156.345 47.5667 155.279 47.9 154.145 48C153.045 48.0667 152.012 47.9167 151.045 47.55C150.079 47.15 149.295 46.5667 148.695 45.8C148.362 45.3667 148.045 44.6833 147.745 43.75C147.445 42.7833 147.395 41.4833 147.595 39.85C147.795 38.3167 148.262 36.7667 148.995 35.2C149.762 33.6333 150.695 32.25 151.795 31.05C152.895 29.85 154.095 29.0333 155.395 28.6C155.862 28.4333 156.329 28.3167 156.795 28.25C157.295 28.15 157.945 28.1333 158.745 28.2C159.512 28.3 160.195 28.5 160.795 28.8C161.395 29.0667 161.829 29.3667 162.095 29.7C162.629 30.2333 162.979 30.75 163.145 31.25C163.312 31.75 163.379 32.2333 163.345 32.7C163.179 33.7667 162.695 34.9167 161.895 36.15C161.129 37.3833 160.045 38.3 158.645 38.9C158.079 39.1333 157.412 39.2833 156.645 39.35C155.879 39.4167 154.829 39.3167 153.495 39.05C152.695 38.8833 152.162 38.9667 151.895 39.3C151.662 39.6333 151.562 40.2833 151.595 41.25C151.662 41.85 151.795 42.3833 151.995 42.85C152.229 43.2833 152.645 43.5833 153.245 43.75C154.012 43.8833 154.562 43.9 154.895 43.8C155.229 43.6667 155.645 43.4833 156.145 43.25C156.412 43.0833 156.662 42.9 156.895 42.7C157.162 42.5 157.412 42.3 157.645 42.1C157.912 41.9 158.129 41.75 158.295 41.65C158.462 41.5167 158.629 41.4333 158.795 41.4C158.962 41.3667 159.129 41.35 159.295 41.35C159.662 41.3833 160.012 41.5833 160.345 41.95C160.679 42.3167 160.895 42.6667 160.995 43C160.995 43.2667 160.829 43.65 160.495 44.15C160.162 44.6167 159.712 45.1167 159.145 45.65C158.612 46.15 158.012 46.6 157.345 47ZM156.695 35.85C156.929 35.75 157.262 35.5167 157.695 35.15C158.162 34.7833 158.579 34.4 158.945 34C159.312 33.5667 159.495 33.2333 159.495 33C159.495 32.6333 159.245 32.3167 158.745 32.05C158.279 31.7833 157.662 31.7333 156.895 31.9C156.629 31.9667 156.312 32.15 155.945 32.45C155.579 32.75 155.212 33.1 154.845 33.5C154.479 33.8667 154.162 34.2333 153.895 34.6C153.629 34.9333 153.445 35.2 153.345 35.4C153.479 35.5667 153.745 35.7 154.145 35.8C154.545 35.9 154.979 35.95 155.445 35.95C155.945 35.95 156.362 35.9167 156.695 35.85ZM170.895 48.3C170.428 48.1667 169.961 47.9333 169.495 47.6C169.028 47.2667 168.545 46.8833 168.045 46.45C167.645 45.9167 167.361 45.4333 167.195 45C167.028 44.5333 166.928 44 166.895 43.4C166.895 42.7667 166.895 41.9667 166.895 41C166.895 40.6 166.961 40.0333 167.095 39.3C167.261 38.5667 167.428 37.8 167.595 37C167.795 36.2 167.978 35.5 168.145 34.9C168.311 34.2667 168.411 33.85 168.445 33.65C168.545 33.2167 168.378 32.9667 167.945 32.9C167.511 32.8333 167.028 32.8167 166.495 32.85C165.995 32.85 165.661 32.8 165.495 32.7C165.361 32.6667 165.295 32.5 165.295 32.2C165.295 31.8667 165.295 31.7 165.295 31.7C165.295 31.5667 165.228 31.4833 165.095 31.45C164.961 31.3833 164.845 31.2667 164.745 31.1C164.678 30.9667 164.761 30.7167 164.995 30.35C165.228 29.9833 165.528 29.7667 165.895 29.7C166.195 29.6333 166.645 29.5833 167.245 29.55C167.845 29.4833 168.445 29.3667 169.045 29.2C169.678 29 170.161 28.7 170.495 28.3C170.795 27.5667 171.128 26.7833 171.495 25.95C171.861 25.0833 172.211 24.3333 172.545 23.7C172.878 23.0333 173.111 22.6167 173.245 22.45C173.811 22.15 174.395 22.0333 174.995 22.1C175.595 22.1333 176.061 22.4167 176.395 22.95C176.561 23.1833 176.695 23.35 176.795 23.45C176.928 23.55 176.978 23.7 176.945 23.9C176.945 24.1 176.811 24.4667 176.545 25C176.311 25.5 175.911 26.2833 175.345 27.35C175.178 27.6833 175.028 27.9833 174.895 28.25C174.761 28.4833 174.695 28.6 174.695 28.6C174.828 28.6333 175.028 28.65 175.295 28.65C175.561 28.65 175.895 28.6333 176.295 28.6C176.661 28.5333 177.061 28.4833 177.495 28.45C177.928 28.3833 178.311 28.3833 178.645 28.45C179.411 28.45 179.978 28.6667 180.345 29.1C180.711 29.5333 180.911 30.0833 180.945 30.75C181.011 31.1167 180.878 31.4333 180.545 31.7C180.211 31.9667 179.595 32.1 178.695 32.1C178.395 32.1 177.961 32.1167 177.395 32.15C176.828 32.1833 176.245 32.2167 175.645 32.25C175.045 32.2833 174.528 32.3333 174.095 32.4C173.695 32.4333 173.495 32.4833 173.495 32.55C173.395 32.6167 173.228 32.8833 172.995 33.35C172.795 33.7833 172.578 34.3167 172.345 34.95C172.145 35.5833 171.961 36.1833 171.795 36.75C171.561 37.8833 171.395 38.9833 171.295 40.05C171.195 41.1167 171.178 42.05 171.245 42.85C171.345 43.6167 171.545 44.1667 171.845 44.5C172.145 44.8 172.595 44.8 173.195 44.5C173.828 44.1667 174.411 43.7833 174.945 43.35C175.545 42.85 176.061 42.7 176.495 42.9C176.928 43.0667 177.195 43.4333 177.295 44C177.428 44.5333 177.278 45.1167 176.845 45.75C176.445 46.3833 175.878 46.9167 175.145 47.35C174.411 47.7833 173.661 48.0833 172.895 48.25C172.128 48.45 171.461 48.4667 170.895 48.3Z" fill="url(#paint5_linear_122_14)"/>
<defs>
<linearGradient id="paint0_linear_122_14" x1="25.0139" y1="29.4387" x2="25.0139" y2="59" gradientUnits="userSpaceOnUse">
<stop stop-color="#FF655B" stop-opacity="0.36"/>
<stop offset="1" stop-color="#FD3A73"/>
</linearGradient>
<linearGradient id="paint1_linear_122_14" x1="6.33783" y1="21.8709" x2="6.33783" y2="38.1608" gradientUnits="userSpaceOnUse">
<stop stop-color="#FF655B" stop-opacity="0.36"/>
<stop offset="1" stop-color="#FD3A73"/>
</linearGradient>
<linearGradient id="paint2_linear_122_14" x1="17.842" y1="9" x2="17.842" y2="25.4212" gradientUnits="userSpaceOnUse">
<stop stop-color="#FF655B" stop-opacity="0.36"/>
<stop offset="1" stop-color="#FD3A73"/>
</linearGradient>
<linearGradient id="paint3_linear_122_14" x1="32.2309" y1="9.00934" x2="32.2309" y2="25.411" gradientUnits="userSpaceOnUse">
<stop stop-color="#FF655B" stop-opacity="0.36"/>
<stop offset="1" stop-color="#FD3A73"/>
</linearGradient>
<linearGradient id="paint4_linear_122_14" x1="43.503" y1="22.1095" x2="43.503" y2="38.1486" gradientUnits="userSpaceOnUse">
<stop stop-color="#FF655B" stop-opacity="0.36"/>
<stop offset="1" stop-color="#FD3A73"/>
</linearGradient>
<linearGradient id="paint5_linear_122_14" x1="120" y1="0" x2="120" y2="60" gradientUnits="userSpaceOnUse">
<stop stop-color="#FF655B" stop-opacity="0.36"/>
<stop offset="1" stop-color="#FD3A73"/>
</linearGradient>
</defs>
</svg>
